<svg width="215" height="280" viewBox="0 0 215 280" fill="none" xmlns="http://www.w3.org/2000/svg">
<path fill-rule="evenodd" clip-rule="evenodd" d="M0 280V93.3333H40.3125V66.6667C40.3125 48.2222 46.8655 32.5022 59.9716 19.5067C73.0776 6.51112 88.9204 0.00889799 107.5 9.10125e-06C126.08 -0.00887979 141.927 6.49334 155.042 19.5067C168.157 32.52 174.705 48.24 174.688 66.6667V93.3333H215V280H0ZM147.812 93.3333V66.6667C147.812 55.5556 143.893 46.1111 136.055 38.3333C128.216 30.5556 118.698 26.6667 107.5 26.6667C96.3021 26.6667 86.7839 30.5556 78.9453 38.3333C71.1068 46.1111 67.1875 55.5556 67.1875 66.6667V93.3333H147.812ZM129 205.971V180.634H140.961C148.359 180.634 153.455 179.238 156.247 176.446C159.178 173.654 160.644 169.048 160.644 162.626V156.344C160.644 149.923 159.178 145.316 156.247 142.524C153.455 139.733 148.359 138.337 140.961 138.337H129V113H148.918C156.037 113 162.389 114.117 167.973 116.35C173.556 118.444 178.233 121.515 182.002 125.564C185.911 129.612 188.842 134.498 190.796 140.221C192.751 145.945 193.728 152.366 193.728 159.485C193.728 166.605 192.751 173.026 190.796 178.75C188.842 184.473 185.911 189.359 182.002 193.407C178.233 197.455 173.556 200.596 167.973 202.83C162.389 204.924 156.037 205.971 148.918 205.971H129ZM87 180.655V206H66.9985C59.8492 206 53.4709 204.953 47.8636 202.858C42.2563 200.624 37.5602 197.482 33.7753 193.432C29.8502 189.383 26.9064 184.495 24.9438 178.77C22.9813 173.045 22 166.622 22 159.5C22 152.378 22.9813 145.955 24.9438 140.23C26.9064 134.505 29.8502 129.617 33.7753 125.568C37.5602 121.518 42.2563 118.446 47.8636 116.351C53.4709 114.117 59.8492 113 66.9985 113H87V138.345H74.9889C67.5592 138.345 62.4425 139.741 59.6389 142.534C56.6951 145.327 55.2232 149.935 55.2232 156.358V162.642C55.2232 169.065 56.6951 173.673 59.6389 176.466C62.4425 179.259 67.5592 180.655 74.9889 180.655H87ZM93 113H124V259H93V113ZM84.7121 211L52.7094 211L28 260H62.2906L84.7121 211Z" fill="#386641"/>
</svg>
