<svg width="451" height="49" viewBox="0 0 451 49" fill="none" xmlns="http://www.w3.org/2000/svg">
<path d="M436.845 48.832C433.389 48.832 430.402 48.256 427.885 47.104C425.41 45.9093 423.298 44.3307 421.549 42.368L425.005 39.36C426.584 41.024 428.312 42.304 430.189 43.2C432.066 44.096 434.328 44.544 436.973 44.544C439.533 44.544 441.624 44.096 443.245 43.2C444.909 42.2613 445.741 40.8107 445.741 38.848C445.741 37.9947 445.57 37.2907 445.229 36.736C444.93 36.1387 444.504 35.6693 443.949 35.328C443.394 34.9867 442.776 34.7307 442.093 34.56C441.41 34.3467 440.685 34.176 439.917 34.048L434.733 33.28C433.581 33.1093 432.322 32.8747 430.957 32.576C429.634 32.2773 428.418 31.808 427.309 31.168C426.2 30.4853 425.261 29.5893 424.493 28.48C423.768 27.3707 423.405 25.92 423.405 24.128C423.405 22.464 423.725 21.0347 424.365 19.84C425.048 18.6027 425.986 17.5787 427.181 16.768C428.376 15.9147 429.784 15.296 431.405 14.912C433.026 14.4853 434.797 14.272 436.717 14.272C439.704 14.272 442.285 14.7413 444.461 15.68C446.68 16.6187 448.578 17.92 450.157 19.584L446.829 22.72C446.445 22.2507 445.954 21.7813 445.357 21.312C444.802 20.8 444.098 20.352 443.245 19.968C442.434 19.5413 441.474 19.2 440.365 18.944C439.256 18.688 437.976 18.56 436.525 18.56C433.922 18.56 431.917 19.008 430.509 19.904C429.144 20.8 428.461 22.1013 428.461 23.808C428.461 24.6613 428.61 25.3867 428.909 25.984C429.25 26.5387 429.698 26.9867 430.253 27.328C430.808 27.6693 431.426 27.9467 432.109 28.16C432.834 28.3307 433.56 28.48 434.285 28.608L439.469 29.376C440.664 29.5467 441.922 29.7813 443.245 30.08C444.568 30.3787 445.784 30.8693 446.893 31.552C448.002 32.192 448.92 33.0667 449.645 34.176C450.413 35.2853 450.797 36.736 450.797 38.528C450.797 41.8133 449.517 44.352 446.957 46.144C444.44 47.936 441.069 48.832 436.845 48.832Z" fill="#5A5A5A"/>
<path d="M398.47 48.832C395.014 48.832 392.027 48.256 389.51 47.104C387.035 45.9093 384.923 44.3307 383.174 42.368L386.63 39.36C388.209 41.024 389.937 42.304 391.814 43.2C393.691 44.096 395.953 44.544 398.598 44.544C401.158 44.544 403.249 44.096 404.87 43.2C406.534 42.2613 407.366 40.8107 407.366 38.848C407.366 37.9947 407.195 37.2907 406.854 36.736C406.555 36.1387 406.129 35.6693 405.574 35.328C405.019 34.9867 404.401 34.7307 403.718 34.56C403.035 34.3467 402.31 34.176 401.542 34.048L396.358 33.28C395.206 33.1093 393.947 32.8747 392.582 32.576C391.259 32.2773 390.043 31.808 388.934 31.168C387.825 30.4853 386.886 29.5893 386.118 28.48C385.393 27.3707 385.03 25.92 385.03 24.128C385.03 22.464 385.35 21.0347 385.99 19.84C386.673 18.6027 387.611 17.5787 388.806 16.768C390.001 15.9147 391.409 15.296 393.03 14.912C394.651 14.4853 396.422 14.272 398.342 14.272C401.329 14.272 403.91 14.7413 406.086 15.68C408.305 16.6187 410.203 17.92 411.782 19.584L408.454 22.72C408.07 22.2507 407.579 21.7813 406.982 21.312C406.427 20.8 405.723 20.352 404.87 19.968C404.059 19.5413 403.099 19.2 401.99 18.944C400.881 18.688 399.601 18.56 398.15 18.56C395.547 18.56 393.542 19.008 392.134 19.904C390.769 20.8 390.086 22.1013 390.086 23.808C390.086 24.6613 390.235 25.3867 390.534 25.984C390.875 26.5387 391.323 26.9867 391.878 27.328C392.433 27.6693 393.051 27.9467 393.734 28.16C394.459 28.3307 395.185 28.48 395.91 28.608L401.094 29.376C402.289 29.5467 403.547 29.7813 404.87 30.08C406.193 30.3787 407.409 30.8693 408.518 31.552C409.627 32.192 410.545 33.0667 411.27 34.176C412.038 35.2853 412.422 36.736 412.422 38.528C412.422 41.8133 411.142 44.352 408.582 46.144C406.065 47.936 402.694 48.832 398.47 48.832Z" fill="#5A5A5A"/>
<path d="M372.191 48.064C370.186 48.064 368.756 47.552 367.903 46.528C367.05 45.504 366.516 44.224 366.303 42.688H365.983C365.258 44.608 364.084 46.1227 362.463 47.232C360.884 48.2987 358.751 48.832 356.063 48.832C352.607 48.832 349.855 47.936 347.807 46.144C345.759 44.352 344.735 41.8987 344.735 38.784C344.735 35.712 345.844 33.344 348.063 31.68C350.324 30.016 353.951 29.184 358.943 29.184H365.983V25.92C365.983 23.488 365.3 21.6747 363.935 20.48C362.57 19.2427 360.628 18.624 358.111 18.624C355.892 18.624 354.079 19.072 352.671 19.968C351.263 20.8213 350.132 21.9947 349.279 23.488L345.823 20.928C346.25 20.0747 346.826 19.2427 347.551 18.432C348.276 17.6213 349.172 16.9173 350.239 16.32C351.306 15.68 352.522 15.1893 353.887 14.848C355.252 14.464 356.767 14.272 358.431 14.272C362.314 14.272 365.386 15.2533 367.647 17.216C369.951 19.1787 371.103 21.9093 371.103 25.408V43.584H375.711V48.064H372.191ZM356.959 44.544C358.282 44.544 359.476 44.3947 360.543 44.096C361.652 43.7547 362.612 43.328 363.423 42.816C364.234 42.2613 364.852 41.6213 365.279 40.896C365.748 40.128 365.983 39.3173 365.983 38.464V33.024H358.943C355.871 33.024 353.631 33.4507 352.223 34.304C350.815 35.1573 350.111 36.3947 350.111 38.016V39.36C350.111 41.0667 350.708 42.368 351.903 43.264C353.14 44.1173 354.826 44.544 356.959 44.544Z" fill="#5A5A5A"/>
<path d="M307.896 48.064V3.392H324.152C328.291 3.392 331.448 4.52266 333.624 6.784C335.8 9.04533 336.888 12.2027 336.888 16.256C336.888 20.3093 335.8 23.4667 333.624 25.728C331.448 27.9893 328.291 29.12 324.152 29.12H313.272V48.064H307.896ZM313.272 24.448H324.024C326.285 24.448 328.035 23.8933 329.272 22.784C330.552 21.632 331.192 20.0107 331.192 17.92V14.592C331.192 12.5013 330.552 10.9013 329.272 9.792C328.035 8.64 326.285 8.064 324.024 8.064H313.272V24.448Z" fill="#5A5A5A"/>
<path d="M283.857 48.832C278.31 48.832 274.108 47.296 271.249 44.224C268.39 41.152 266.961 36.9707 266.961 31.68C266.961 28.992 267.324 26.5813 268.049 24.448C268.817 22.272 269.884 20.4373 271.249 18.944C272.657 17.408 274.342 16.256 276.305 15.488C278.31 14.6773 280.55 14.272 283.025 14.272C285.5 14.272 287.718 14.6773 289.681 15.488C291.644 16.256 293.308 17.3653 294.673 18.816C296.038 20.2667 297.084 22.0373 297.809 24.128C298.577 26.176 298.961 28.48 298.961 31.04V33.856H276.369V34.432C276.369 36.5653 277.03 38.2933 278.353 39.616C279.676 40.896 281.617 41.536 284.177 41.536C286.14 41.536 287.825 41.1733 289.233 40.448C290.641 39.68 291.857 38.6773 292.881 37.44L298.001 43.008C296.721 44.5867 294.929 45.952 292.625 47.104C290.321 48.256 287.398 48.832 283.857 48.832ZM283.089 21.056C281.041 21.056 279.398 21.696 278.161 22.976C276.966 24.2133 276.369 25.8987 276.369 28.032V28.544H289.681V28.032C289.681 25.856 289.084 24.1493 287.889 22.912C286.737 21.6747 285.137 21.056 283.089 21.056Z" fill="#386641"/>
<path d="M238.954 48.064L227.114 15.04H237.098L241.386 29.184L244.522 40.192H245.034L248.17 29.184L252.458 15.04H262.058L250.218 48.064H238.954Z" fill="#386641"/>
<path d="M208.259 10.816C206.126 10.816 204.632 10.3893 203.779 9.536C202.968 8.64 202.563 7.57334 202.563 6.336V4.48C202.563 3.2 202.968 2.13334 203.779 1.28C204.632 0.426668 206.126 0 208.259 0C210.392 0 211.864 0.426668 212.675 1.28C213.528 2.13334 213.955 3.2 213.955 4.48V6.336C213.955 7.57334 213.528 8.64 212.675 9.536C211.864 10.3893 210.392 10.816 208.259 10.816ZM193.027 40.704H203.523V22.4H193.027V15.04H212.995V40.704H222.723V48.064H193.027V40.704Z" fill="#386641"/>
<path d="M170.396 48.064C166.983 48.064 164.444 47.168 162.78 45.376C161.116 43.584 160.284 41.3013 160.284 38.528V22.4H151.324V15.04H157.148C158.556 15.04 159.559 14.7627 160.156 14.208C160.753 13.6533 161.052 12.6293 161.052 11.136V3.392H169.756V15.04H182.62V22.4H169.756V40.704H182.62V48.064H170.396Z" fill="#386641"/>
<path d="M130.805 48.832C128.202 48.832 125.856 48.448 123.765 47.68C121.717 46.8693 119.968 45.7173 118.517 44.224C117.109 42.7307 116.021 40.9173 115.253 38.784C114.485 36.6507 114.101 34.24 114.101 31.552C114.101 28.864 114.485 26.4533 115.253 24.32C116.021 22.1867 117.109 20.3733 118.517 18.88C119.968 17.3867 121.717 16.256 123.765 15.488C125.856 14.6773 128.181 14.272 130.741 14.272C134.368 14.272 137.269 15.0187 139.445 16.512C141.664 17.9627 143.349 19.904 144.501 22.336L137.205 26.304C136.608 25.024 135.818 23.9573 134.837 23.104C133.898 22.2507 132.533 21.824 130.741 21.824C128.565 21.824 126.88 22.464 125.685 23.744C124.533 24.9813 123.957 26.688 123.957 28.864V34.24C123.957 36.416 124.533 38.144 125.685 39.424C126.88 40.6613 128.608 41.28 130.869 41.28C132.704 41.28 134.133 40.8533 135.157 40C136.224 39.1467 137.12 38.0373 137.845 36.672L145.013 40.768C143.818 43.2 142.069 45.1627 139.765 46.656C137.504 48.1067 134.517 48.832 130.805 48.832Z" fill="#386641"/>
<path d="M103.054 48.064C101.091 48.064 99.5127 47.5733 98.318 46.592C97.1233 45.568 96.4193 44.1173 96.206 42.24H95.886C95.2887 44.416 94.094 46.0587 92.302 47.168C90.5527 48.2773 88.398 48.832 85.838 48.832C82.638 48.832 80.0567 47.9787 78.094 46.272C76.174 44.5227 75.214 42.0907 75.214 38.976C75.214 35.52 76.4727 32.96 78.99 31.296C81.5073 29.632 85.198 28.8 90.062 28.8H95.374V27.136C95.374 25.1733 94.9047 23.7013 93.966 22.72C93.07 21.696 91.534 21.184 89.358 21.184C87.3527 21.184 85.7313 21.568 84.494 22.336C83.2567 23.104 82.19 24.1067 81.294 25.344L76.11 20.736C77.2193 18.8587 78.9473 17.3227 81.294 16.128C83.6833 14.8907 86.734 14.272 90.446 14.272C94.9687 14.272 98.4887 15.3173 101.006 17.408C103.566 19.456 104.846 22.5707 104.846 26.752V41.216H108.494V48.064H103.054ZM89.422 42.624C91.086 42.624 92.494 42.2187 93.646 41.408C94.798 40.5973 95.374 39.424 95.374 37.888V33.92H90.318C86.4353 33.92 84.494 35.2213 84.494 37.824V39.104C84.494 40.256 84.942 41.1307 85.838 41.728C86.734 42.3253 87.9287 42.624 89.422 42.624Z" fill="#386641"/>
<path d="M53.607 48.832C48.0603 48.832 43.8577 47.296 40.999 44.224C38.1403 41.152 36.711 36.9707 36.711 31.68C36.711 28.992 37.0737 26.5813 37.799 24.448C38.567 22.272 39.6337 20.4373 40.999 18.944C42.407 17.408 44.0923 16.256 46.055 15.488C48.0603 14.6773 50.3003 14.272 52.775 14.272C55.2497 14.272 57.4683 14.6773 59.431 15.488C61.3937 16.256 63.0577 17.3653 64.423 18.816C65.7883 20.2667 66.8337 22.0373 67.559 24.128C68.327 26.176 68.711 28.48 68.711 31.04V33.856H46.119V34.432C46.119 36.5653 46.7803 38.2933 48.103 39.616C49.4257 40.896 51.367 41.536 53.927 41.536C55.8897 41.536 57.575 41.1733 58.983 40.448C60.391 39.68 61.607 38.6773 62.631 37.44L67.751 43.008C66.471 44.5867 64.679 45.952 62.375 47.104C60.071 48.256 57.1483 48.832 53.607 48.832ZM52.839 21.056C50.791 21.056 49.1483 21.696 47.911 22.976C46.7163 24.2133 46.119 25.8987 46.119 28.032V28.544H59.431V28.032C59.431 25.856 58.8337 24.1493 57.639 22.912C56.487 21.6747 54.887 21.056 52.839 21.056Z" fill="#386641"/>
<path d="M9.472 48.064H0V3.392H17.28C19.456 3.392 21.3973 3.73333 23.104 4.416C24.8107 5.056 26.24 5.99466 27.392 7.232C28.5867 8.46933 29.4827 9.96266 30.08 11.712C30.6773 13.4613 30.976 15.424 30.976 17.6C30.976 20.7573 30.2933 23.4667 28.928 25.728C27.5627 27.9893 25.6213 29.4827 23.104 30.208L31.872 48.064H21.376L13.888 31.488H9.472V48.064ZM14.976 24.064C17.2373 24.064 18.7947 23.6373 19.648 22.784C20.544 21.9307 20.992 20.5227 20.992 18.56V16.64C20.992 14.6773 20.544 13.2693 19.648 12.416C18.7947 11.5627 17.2373 11.136 14.976 11.136H9.472V24.064H14.976Z" fill="#386641"/>
</svg>
