<svg width="172" height="147" viewBox="0 0 172 147" fill="none" xmlns="http://www.w3.org/2000/svg">
<path d="M107 92.9707V0H126.918C134.037 0 140.389 1.11676 145.973 3.35029C151.556 5.44422 156.233 8.51533 160.002 12.5636C163.911 16.6119 166.842 21.4977 168.796 27.2211C170.751 32.9446 171.728 39.366 171.728 46.4853C171.728 53.6047 170.751 60.0261 168.796 65.7495C166.842 71.4729 163.911 76.3588 160.002 80.4071C156.233 84.4553 151.556 87.5962 145.973 89.8298C140.389 91.9237 134.037 92.9707 126.918 92.9707H107ZM107 67.6341H118.961C126.359 67.6341 131.455 66.2381 134.247 63.4462C137.178 60.6543 138.644 56.0476 138.644 49.6262V43.3444C138.644 36.923 137.178 32.3164 134.247 29.5245C131.455 26.7326 126.359 25.3366 118.961 25.3366H107V67.6341Z" fill="#5A5A5A"/>
<path d="M65 93V0H44.9985C37.8492 0 31.4709 1.11712 25.8636 3.35135C20.2563 5.44594 15.5602 8.51801 11.7753 12.5676C7.8502 16.6171 4.90637 21.5045 2.94381 27.2297C0.981264 32.955 1.10249e-07 39.3784 1.10249e-07 46.5C1.10249e-07 53.6216 0.981264 60.045 2.94381 65.7703C4.90637 71.4955 7.8502 76.3829 11.7753 80.4324C15.5602 84.482 20.2563 87.6239 25.8636 89.8581C31.4709 91.9527 37.8492 93 44.9985 93H65ZM65 67.6554H52.9889C45.5592 67.6554 40.4425 66.259 37.6389 63.4662C34.6951 60.6734 33.2232 56.0653 33.2232 49.6419V43.3581C33.2232 36.9347 34.6951 32.3266 37.6389 29.5338C40.4425 26.741 45.5592 25.3446 52.9889 25.3446H65V67.6554Z" fill="#386641"/>
<rect x="71" width="31" height="146" fill="#386641"/>
<path d="M30.7094 98L62.7121 98L40.2906 147H6L30.7094 98Z" fill="#386641"/>
</svg>
